<svg xmlns="http://www.w3.org/2000/svg" xmlns:xlink="http://www.w3.org/1999/xlink" width="50" zoomAndPan="magnify" viewBox="0 0 37.5 37.499999" height="50" preserveAspectRatio="xMidYMid meet" version="1.0"><defs><clipPath id="bc771f3262"><path d="M 4.359375 4.964844 L 32.859375 4.964844 L 32.859375 33.464844 L 4.359375 33.464844 Z M 4.359375 4.964844 " clip-rule="nonzero"/></clipPath></defs><g clip-path="url(#bc771f3262)"><path fill="#d6cbc3" d="M 32.609375 22.09375 L 19.273438 11.113281 L 19.273438 8.089844 L 20.640625 8.089844 C 20.816406 8.082031 20.96875 8.011719 21.09375 7.882812 C 21.214844 7.753906 21.277344 7.601562 21.277344 7.421875 C 21.277344 7.242188 21.214844 7.089844 21.09375 6.960938 C 20.96875 6.832031 20.816406 6.761719 20.640625 6.753906 L 19.273438 6.753906 L 19.273438 5.640625 C 19.273438 5.457031 19.210938 5.300781 19.078125 5.171875 C 18.949219 5.039062 18.792969 4.976562 18.609375 4.976562 C 18.425781 4.976562 18.265625 5.039062 18.136719 5.171875 C 18.007812 5.300781 17.941406 5.457031 17.941406 5.640625 L 17.941406 6.753906 L 16.578125 6.753906 C 16.398438 6.761719 16.246094 6.832031 16.125 6.960938 C 16 7.089844 15.9375 7.242188 15.9375 7.421875 C 15.9375 7.601562 16 7.753906 16.125 7.882812 C 16.246094 8.011719 16.398438 8.082031 16.578125 8.089844 L 17.941406 8.089844 L 17.941406 11.113281 L 4.609375 22.09375 C 4.464844 22.210938 4.382812 22.363281 4.367188 22.546875 C 4.347656 22.730469 4.398438 22.894531 4.515625 23.039062 C 4.632812 23.179688 4.78125 23.261719 4.96875 23.28125 C 5.152344 23.296875 5.316406 23.25 5.457031 23.132812 L 7.925781 21.097656 L 7.925781 32.796875 C 7.925781 32.980469 7.992188 33.136719 8.121094 33.269531 C 8.253906 33.398438 8.410156 33.464844 8.59375 33.464844 L 15.082031 33.464844 C 15.265625 33.464844 15.425781 33.398438 15.554688 33.269531 C 15.683594 33.136719 15.75 32.980469 15.75 32.796875 L 15.75 27.136719 C 15.75 26.757812 15.824219 26.394531 15.96875 26.042969 C 16.113281 25.691406 16.320312 25.382812 16.585938 25.117188 C 16.855469 24.847656 17.164062 24.640625 17.515625 24.496094 C 17.863281 24.351562 18.230469 24.277344 18.609375 24.277344 C 18.988281 24.277344 19.351562 24.351562 19.703125 24.496094 C 20.050781 24.640625 20.359375 24.847656 20.628906 25.117188 C 20.898438 25.382812 21.101562 25.691406 21.25 26.042969 C 21.394531 26.394531 21.464844 26.757812 21.464844 27.136719 L 21.464844 32.792969 C 21.464844 32.976562 21.53125 33.132812 21.660156 33.261719 C 21.792969 33.394531 21.949219 33.457031 22.132812 33.457031 L 28.621094 33.457031 C 28.804688 33.457031 28.964844 33.394531 29.09375 33.261719 C 29.226562 33.132812 29.289062 32.976562 29.289062 32.792969 L 29.289062 21.09375 L 31.757812 23.125 C 31.902344 23.242188 32.066406 23.292969 32.25 23.273438 C 32.433594 23.257812 32.585938 23.175781 32.703125 23.035156 C 32.820312 22.890625 32.867188 22.726562 32.851562 22.542969 C 32.832031 22.359375 32.75 22.207031 32.609375 22.089844 Z M 27.953125 32.125 L 22.800781 32.125 L 22.800781 27.136719 C 22.800781 26.863281 22.773438 26.589844 22.71875 26.320312 C 22.667969 26.050781 22.585938 25.785156 22.480469 25.53125 C 22.375 25.277344 22.246094 25.035156 22.09375 24.808594 C 21.941406 24.578125 21.765625 24.367188 21.574219 24.171875 C 21.378906 23.976562 21.167969 23.804688 20.9375 23.652344 C 20.707031 23.5 20.464844 23.371094 20.210938 23.265625 C 19.957031 23.160156 19.695312 23.078125 19.425781 23.027344 C 19.15625 22.972656 18.882812 22.945312 18.609375 22.945312 C 18.332031 22.945312 18.058594 22.972656 17.789062 23.027344 C 17.519531 23.078125 17.257812 23.160156 17.003906 23.265625 C 16.75 23.371094 16.507812 23.5 16.277344 23.652344 C 16.050781 23.804688 15.839844 23.976562 15.644531 24.171875 C 15.449219 24.367188 15.273438 24.578125 15.121094 24.808594 C 14.96875 25.035156 14.839844 25.277344 14.734375 25.53125 C 14.628906 25.785156 14.550781 26.050781 14.496094 26.320312 C 14.441406 26.589844 14.414062 26.863281 14.414062 27.136719 L 14.414062 32.125 L 9.261719 32.125 L 9.261719 19.992188 L 18.609375 12.292969 L 27.953125 19.992188 Z M 27.953125 32.125 " fill-opacity="1" fill-rule="nonzero"/></g></svg>